<svg width="30" height="30" viewBox="0 0 30 30" fill="none" xmlns="http://www.w3.org/2000/svg">
<path fill-rule="evenodd" clip-rule="evenodd" d="M6 2H24C26.2091 2 28 3.79086 28 6V24C28 26.2091 26.2091 28 24 28H6C3.79086 28 2 26.2091 2 24V6C2 3.79086 3.79086 2 6 2ZM0 6C0 2.68629 2.68629 0 6 0H24C27.3137 0 30 2.68629 30 6V24C30 27.3137 27.3137 30 24 30H6C2.68629 30 0 27.3137 0 24V6ZM23.6938 15.2125C23.5688 15.0875 23.3625 15.025 23.075 15.025C22.225 15.025 21.4688 14.9688 20.8063 14.8563C21.4313 13.1563 21.7438 11.5875 21.7438 10.15C21.7438 9.15001 21.5063 8.36251 21.0313 7.78751C20.5688 7.21251 19.9375 6.92501 19.1375 6.92501C18.4875 6.92501 17.8938 7.09376 17.3563 7.43126C16.8313 7.76876 16.4125 8.28126 16.1 8.96876C15.8 9.64376 15.65 10.475 15.65 11.4625C15.65 12.45 15.8438 13.325 16.2313 14.0875C16.6188 14.8375 17.1938 15.45 17.9563 15.925C17.3188 17.2875 16.6188 18.4188 15.8563 19.3188C15.0938 20.2188 14.3875 20.6688 13.7375 20.6688C13.1 20.6688 12.6188 20.175 12.2938 19.1875C11.9813 18.1875 11.825 16.7313 11.825 14.8188C11.825 12.9938 12.0125 10.9563 12.3875 8.70626C12.4125 8.50626 12.425 8.36876 12.425 8.29376C12.425 7.58126 12.0125 7.22501 11.1875 7.22501C10.6875 7.22501 10.3313 7.34376 10.1188 7.58126C9.91875 7.80626 9.7625 8.24376 9.65 8.89376C9.3375 10.6438 9.18125 12.6188 9.18125 14.8188C9.18125 17.3938 9.5 19.4375 10.1375 20.95C10.775 22.4625 11.7438 23.2188 13.0438 23.2188C14.3063 23.2188 15.5625 22.6063 16.8125 21.3813C18.075 20.1438 19.15 18.5938 20.0375 16.7313C20.8125 16.9063 21.7 16.9813 22.7 16.9563C23.1125 16.9438 23.4125 16.8125 23.6 16.5625C23.8 16.3125 23.9 16.025 23.9 15.7C23.9 15.5 23.8313 15.3375 23.6938 15.2125ZM18.725 14.05C17.9375 13.4625 17.5438 12.5563 17.5438 11.3313C17.5438 10.6063 17.65 10.05 17.8625 9.66251C18.075 9.26251 18.35 9.06251 18.6875 9.06251C18.925 9.06251 19.1125 9.18751 19.25 9.43751C19.3875 9.67501 19.4563 10.0563 19.4563 10.5813C19.4563 11.4938 19.2125 12.65 18.725 14.05Z" fill="black"/>
</svg>
