<svg width="30" height="30" viewBox="0 0 30 30" fill="none" xmlns="http://www.w3.org/2000/svg">
<rect x="1" y="1" width="28" height="28" rx="5" fill="white" stroke="#DB2777" stroke-width="2"/>
<path d="M22.8938 15.1C23.1813 15.1 23.3875 15.1625 23.5125 15.2875C23.65 15.4125 23.7188 15.575 23.7188 15.775C23.7188 16.1 23.6188 16.3875 23.4187 16.6375C23.2312 16.8875 22.9313 17.0187 22.5188 17.0312C21.5188 17.0562 20.6313 16.9813 19.8563 16.8063C18.9688 18.6688 17.8938 20.2188 16.6313 21.4563C15.3813 22.6813 14.125 23.2938 12.8625 23.2938C11.5625 23.2938 10.5938 22.5375 9.95625 21.025C9.31875 19.5125 9 17.4688 9 14.8938C9 12.6938 9.15625 10.7187 9.46875 8.96875C9.58125 8.31875 9.7375 7.88125 9.9375 7.65625C10.15 7.41875 10.5063 7.3 11.0063 7.3C11.8312 7.3 12.2438 7.65625 12.2438 8.36875C12.2438 8.44375 12.2313 8.58125 12.2063 8.78125C11.8313 11.0312 11.6438 13.0687 11.6438 14.8938C11.6438 16.8063 11.8 18.2625 12.1125 19.2625C12.4375 20.25 12.9188 20.7437 13.5563 20.7437C14.2063 20.7437 14.9125 20.2937 15.675 19.3937C16.4375 18.4937 17.1375 17.3625 17.775 16C17.0125 15.525 16.4375 14.9125 16.05 14.1625C15.6625 13.4 15.4688 12.525 15.4688 11.5375C15.4688 10.55 15.6188 9.71875 15.9188 9.04375C16.2313 8.35625 16.65 7.84375 17.175 7.50625C17.7125 7.16875 18.3063 7 18.9563 7C19.7563 7 20.3875 7.2875 20.85 7.8625C21.325 8.4375 21.5625 9.225 21.5625 10.225C21.5625 11.6625 21.25 13.2313 20.625 14.9313C21.2875 15.0438 22.0438 15.1 22.8938 15.1ZM17.3625 11.4063C17.3625 12.6312 17.7562 13.5375 18.5438 14.125C19.0312 12.725 19.275 11.5688 19.275 10.6562C19.275 10.1312 19.2063 9.75 19.0688 9.5125C18.9313 9.2625 18.7438 9.1375 18.5063 9.1375C18.1688 9.1375 17.8938 9.3375 17.6813 9.7375C17.4687 10.125 17.3625 10.6812 17.3625 11.4063Z" fill="#DB2777"/>
</svg>
